<svg width="21" height="20" viewBox="0 0 21 20" fill="none" xmlns="http://www.w3.org/2000/svg">
<path d="M3.5 15H5V13.5H16V15H17.5V11.15C17.5 10.8 17.4333 10.4707 17.3 10.162C17.1667 9.85334 16.9833 9.58267 16.75 9.35V7C16.75 6.45 16.554 5.97933 16.162 5.588C15.77 5.19667 15.2993 5.00067 14.75 5H11.5C11.3167 5 11.1417 5.025 10.975 5.075C10.8083 5.125 10.65 5.2 10.5 5.3C10.35 5.2 10.1917 5.125 10.025 5.075C9.85833 5.025 9.68334 5 9.5 5H6.25C5.7 5 5.229 5.196 4.837 5.588C4.445 5.98 4.24934 6.45067 4.25 7V9.35C4.01667 9.58334 3.83333 9.85434 3.7 10.163C3.56667 10.4717 3.5 10.8007 3.5 11.15V15ZM5 12V11C5 10.7167 5.096 10.479 5.288 10.287C5.48 10.095 5.71734 9.99934 6 10H15C15.2833 10 15.521 10.096 15.713 10.288C15.905 10.48 16.0007 10.7173 16 11V12H5ZM5.75 8.5V6.5H9.75V8.5H5.75ZM11.25 8.5V6.5H15.25V8.5H11.25ZM2.5 20C1.95 20 1.479 19.804 1.087 19.412C0.695002 19.02 0.499335 18.5493 0.500002 18V2C0.500002 1.45 0.696002 0.979002 1.088 0.587002C1.48 0.195002 1.95067 -0.000664969 2.5 1.69779e-06H18.5C19.05 1.69779e-06 19.521 0.196002 19.913 0.588002C20.305 0.980002 20.5007 1.45067 20.5 2V18C20.5 18.55 20.304 19.021 19.912 19.413C19.52 19.805 19.0493 20.0007 18.5 20H2.5ZM2.5 18H18.5V2H2.5V18Z" fill="#F5333F"/>
</svg>
