<svg width="18" height="20" viewBox="0 0 18 20" fill="none" xmlns="http://www.w3.org/2000/svg">
<path d="M15.75 0.25H2.25C1.85218 0.25 1.47064 0.408035 1.18934 0.68934C0.908035 0.970644 0.75 1.35218 0.75 1.75V18.25C0.75 18.6478 0.908035 19.0294 1.18934 19.3107C1.47064 19.592 1.85218 19.75 2.25 19.75H15.75C16.1478 19.75 16.5294 19.592 16.8107 19.3107C17.092 19.0294 17.25 18.6478 17.25 18.25V1.75C17.25 1.35218 17.092 0.970644 16.8107 0.68934C16.5294 0.408035 16.1478 0.25 15.75 0.25ZM11.25 11.5H15.75V13.75H7.5V11.5H11.25ZM12 10V7.75H15.75V10H12ZM15.75 1.75V6.25H11.25C11.0511 6.25 10.8603 6.32902 10.7197 6.46967C10.579 6.61032 10.5 6.80109 10.5 7V10H6.75C6.55109 10 6.36032 10.079 6.21967 10.2197C6.07902 10.3603 6 10.5511 6 10.75V13.75H2.25V1.75H15.75ZM15.75 18.25H2.25V15.25H15.75V18.25Z" fill="#F5333F"/>
</svg>
