<svg width="38" height="38" viewBox="0 0 38 38" fill="none" xmlns="http://www.w3.org/2000/svg">
<path d="M19 0.667969C8.87996 0.667969 0.666626 8.8813 0.666626 19.0013C0.666626 29.1213 8.87996 37.3346 19 37.3346C29.12 37.3346 37.3333 29.1213 37.3333 19.0013C37.3333 8.8813 29.12 0.667969 19 0.667969ZM19 6.16797C22.0433 6.16797 24.5 8.62464 24.5 11.668C24.5 14.7113 22.0433 17.168 19 17.168C15.9566 17.168 13.5 14.7113 13.5 11.668C13.5 8.62464 15.9566 6.16797 19 6.16797ZM19 32.2013C14.4166 32.2013 10.365 29.8546 7.99996 26.298C8.05496 22.6496 15.3333 20.6513 19 20.6513C22.6483 20.6513 29.945 22.6496 30 26.298C27.635 29.8546 23.5833 32.2013 19 32.2013Z" fill="#999999"/>
</svg>
